<?xml version="1.0" encoding="UTF-8" standalone="no"?>
<!DOCTYPE svg PUBLIC "-//W3C//DTD SVG 1.1//EN"
 "http://www.w3.org/Graphics/SVG/1.1/DTD/svg11.dtd">
<!-- Generated by graphviz version 2.49.3 (20211023.0002)
 -->
<!-- Title: G Pages: 1 -->
<svg width="1241pt" height="620pt"
 viewBox="0.00 0.00 1240.83 620.00" xmlns="http://www.w3.org/2000/svg" xmlns:xlink="http://www.w3.org/1999/xlink">
<g id="graph0" class="graph" transform="scale(1 1) rotate(0) translate(4 616)">
<title>G</title>
<polygon fill="white" stroke="transparent" points="-4,4 -4,-616 1236.83,-616 1236.83,4 -4,4"/>
<!-- ans1 -->
<g id="node1" class="node">
<title>ans1</title>
<ellipse fill="none" stroke="black" cx="207.98" cy="-594" rx="27.1" ry="18"/>
<text text-anchor="middle" x="207.98" y="-590.3" font-family="Times,serif" font-size="14.00">ans1</text>
</g>
<!-- ans3 -->
<g id="node2" class="node">
<title>ans3</title>
<ellipse fill="none" stroke="black" cx="254.98" cy="-522" rx="27.1" ry="18"/>
<text text-anchor="middle" x="254.98" y="-518.3" font-family="Times,serif" font-size="14.00">ans3</text>
</g>
<!-- ans1&#45;&#45;ans3 -->
<g id="edge1" class="edge">
<title>ans1&#45;&#45;ans3</title>
<path fill="none" stroke="black" d="M218.64,-577.12C226.34,-565.66 236.67,-550.26 244.36,-538.82"/>
</g>
<!-- ans5 -->
<g id="node3" class="node">
<title>ans5</title>
<ellipse fill="none" stroke="black" cx="171.98" cy="-522" rx="27.1" ry="18"/>
<text text-anchor="middle" x="171.98" y="-518.3" font-family="Times,serif" font-size="14.00">ans5</text>
</g>
<!-- ans1&#45;&#45;ans5 -->
<g id="edge2" class="edge">
<title>ans1&#45;&#45;ans5</title>
<path fill="none" stroke="black" d="M199.63,-576.76C193.81,-565.46 186.09,-550.44 180.28,-539.15"/>
</g>
<!-- ans7 -->
<g id="node4" class="node">
<title>ans7</title>
<ellipse fill="none" stroke="black" cx="69.98" cy="-450" rx="27.1" ry="18"/>
<text text-anchor="middle" x="69.98" y="-446.3" font-family="Times,serif" font-size="14.00">ans7</text>
</g>
<!-- ans1&#45;&#45;ans7 -->
<g id="edge3" class="edge">
<title>ans1&#45;&#45;ans7</title>
<path fill="none" stroke="black" d="M188.73,-581.12C173.48,-571.19 152.14,-556.11 135.98,-540 112.95,-517.05 91.56,-485.62 79.69,-466.9"/>
</g>
<!-- ans17 -->
<g id="node5" class="node">
<title>ans17</title>
<ellipse fill="none" stroke="black" cx="378.98" cy="-450" rx="31.7" ry="18"/>
<text text-anchor="middle" x="378.98" y="-446.3" font-family="Times,serif" font-size="14.00">ans17</text>
</g>
<!-- ans1&#45;&#45;ans17 -->
<g id="edge4" class="edge">
<title>ans1&#45;&#45;ans17</title>
<path fill="none" stroke="black" d="M228.28,-581.75C245.63,-571.75 270.9,-556.23 290.98,-540 319.71,-516.78 349.09,-485.15 365.59,-466.52"/>
</g>
<!-- ans24 -->
<g id="node6" class="node">
<title>ans24</title>
<ellipse fill="none" stroke="black" cx="802.98" cy="-378" rx="31.7" ry="18"/>
<text text-anchor="middle" x="802.98" y="-374.3" font-family="Times,serif" font-size="14.00">ans24</text>
</g>
<!-- ans1&#45;&#45;ans24 -->
<g id="edge5" class="edge">
<title>ans1&#45;&#45;ans24</title>
<path fill="none" stroke="black" d="M230.46,-583.34C254.01,-573.09 291.95,-556.15 323.98,-540 382.95,-510.25 399.74,-505.69 453.98,-468 474.17,-453.97 473.73,-442.47 495.98,-432 544.8,-409.03 703.97,-389.67 771.85,-382.25"/>
</g>
<!-- ans28 -->
<g id="node7" class="node">
<title>ans28</title>
<ellipse fill="none" stroke="black" cx="60.98" cy="-378" rx="31.7" ry="18"/>
<text text-anchor="middle" x="60.98" y="-374.3" font-family="Times,serif" font-size="14.00">ans28</text>
</g>
<!-- ans1&#45;&#45;ans28 -->
<g id="edge6" class="edge">
<title>ans1&#45;&#45;ans28</title>
<path fill="none" stroke="black" d="M183.8,-585.22C142.41,-570.33 59.95,-533.33 33.98,-468 24.08,-443.09 38.37,-413.07 49.64,-395.03"/>
</g>
<!-- ans3&#45;&#45;ans28 -->
<g id="edge14" class="edge">
<title>ans3&#45;&#45;ans28</title>
<path fill="none" stroke="black" d="M237.42,-508.15C200.95,-481.45 117.28,-420.21 79.77,-392.76"/>
</g>
<!-- ans6 -->
<g id="node12" class="node">
<title>ans6</title>
<ellipse fill="none" stroke="black" cx="263.98" cy="-450" rx="27.1" ry="18"/>
<text text-anchor="middle" x="263.98" y="-446.3" font-family="Times,serif" font-size="14.00">ans6</text>
</g>
<!-- ans3&#45;&#45;ans6 -->
<g id="edge11" class="edge">
<title>ans3&#45;&#45;ans6</title>
<path fill="none" stroke="black" d="M257.16,-504.05C258.55,-493.21 260.36,-479.18 261.76,-468.28"/>
</g>
<!-- ans9 -->
<g id="node13" class="node">
<title>ans9</title>
<ellipse fill="none" stroke="black" cx="213.98" cy="-378" rx="27.1" ry="18"/>
<text text-anchor="middle" x="213.98" y="-374.3" font-family="Times,serif" font-size="14.00">ans9</text>
</g>
<!-- ans3&#45;&#45;ans9 -->
<g id="edge12" class="edge">
<title>ans3&#45;&#45;ans9</title>
<path fill="none" stroke="black" d="M245.07,-504.87C239.23,-494.65 232.18,-480.97 227.98,-468 220.11,-443.75 216.59,-414.3 215.07,-396.1"/>
</g>
<!-- ans20 -->
<g id="node14" class="node">
<title>ans20</title>
<ellipse fill="none" stroke="black" cx="524.98" cy="-378" rx="31.7" ry="18"/>
<text text-anchor="middle" x="524.98" y="-374.3" font-family="Times,serif" font-size="14.00">ans20</text>
</g>
<!-- ans3&#45;&#45;ans20 -->
<g id="edge13" class="edge">
<title>ans3&#45;&#45;ans20</title>
<path fill="none" stroke="black" d="M280.83,-515.99C314.43,-508.77 374.21,-493.42 419.98,-468 422.46,-466.62 479.1,-418.26 508.14,-393.42"/>
</g>
<!-- ans5&#45;&#45;ans7 -->
<g id="edge19" class="edge">
<title>ans5&#45;&#45;ans7</title>
<path fill="none" stroke="black" d="M153.74,-508.49C135.29,-495.82 106.92,-476.35 88.4,-463.64"/>
</g>
<!-- ans5&#45;&#45;ans6 -->
<g id="edge18" class="edge">
<title>ans5&#45;&#45;ans6</title>
<path fill="none" stroke="black" d="M189.28,-507.83C205.73,-495.32 230.33,-476.6 246.75,-464.11"/>
</g>
<!-- ans18 -->
<g id="node16" class="node">
<title>ans18</title>
<ellipse fill="none" stroke="black" cx="404.98" cy="-378" rx="31.7" ry="18"/>
<text text-anchor="middle" x="404.98" y="-374.3" font-family="Times,serif" font-size="14.00">ans18</text>
</g>
<!-- ans5&#45;&#45;ans18 -->
<g id="edge20" class="edge">
<title>ans5&#45;&#45;ans18</title>
<path fill="none" stroke="black" d="M195.38,-512.48C227.15,-500.72 282.02,-479.65 299.98,-468 319.5,-455.34 320.39,-447.23 337.98,-432 354.01,-418.11 373.04,-403.2 386.71,-392.75"/>
</g>
<!-- ans26 -->
<g id="node17" class="node">
<title>ans26</title>
<ellipse fill="none" stroke="black" cx="736.98" cy="-306" rx="31.7" ry="18"/>
<text text-anchor="middle" x="736.98" y="-302.3" font-family="Times,serif" font-size="14.00">ans26</text>
</g>
<!-- ans5&#45;&#45;ans26 -->
<g id="edge21" class="edge">
<title>ans5&#45;&#45;ans26</title>
<path fill="none" stroke="black" d="M166.32,-504.38C156.4,-471.78 140.27,-399.22 177.98,-360 214.28,-322.25 596.06,-330.92 647.98,-324 668.09,-321.32 690.54,-317.02 707.85,-313.42"/>
</g>
<!-- ans30 -->
<g id="node18" class="node">
<title>ans30</title>
<ellipse fill="none" stroke="black" cx="268.98" cy="-234" rx="31.7" ry="18"/>
<text text-anchor="middle" x="268.98" y="-230.3" font-family="Times,serif" font-size="14.00">ans30</text>
</g>
<!-- ans5&#45;&#45;ans30 -->
<g id="edge22" class="edge">
<title>ans5&#45;&#45;ans30</title>
<path fill="none" stroke="black" d="M145.31,-517.72C114.36,-512.53 63.75,-499.54 33.98,-468 0.29,-432.31 -8.99,-404.83 10.98,-360 50.26,-271.79 178.17,-245.49 237.82,-237.92"/>
</g>
<!-- ans7&#45;&#45;ans9 -->
<g id="edge26" class="edge">
<title>ans7&#45;&#45;ans9</title>
<path fill="none" stroke="black" d="M91.23,-438.67C118.45,-425.44 165.38,-402.63 192.64,-389.37"/>
</g>
<!-- ans19 -->
<g id="node20" class="node">
<title>ans19</title>
<ellipse fill="none" stroke="black" cx="404.98" cy="-306" rx="31.7" ry="18"/>
<text text-anchor="middle" x="404.98" y="-302.3" font-family="Times,serif" font-size="14.00">ans19</text>
</g>
<!-- ans7&#45;&#45;ans19 -->
<g id="edge27" class="edge">
<title>ans7&#45;&#45;ans19</title>
<path fill="none" stroke="black" d="M79.04,-432.63C91.24,-412.22 114.92,-377.85 144.98,-360 183.5,-337.13 313.57,-318.42 373.84,-310.75"/>
</g>
<!-- ans29 -->
<g id="node21" class="node">
<title>ans29</title>
<ellipse fill="none" stroke="black" cx="170.98" cy="-306" rx="31.7" ry="18"/>
<text text-anchor="middle" x="170.98" y="-302.3" font-family="Times,serif" font-size="14.00">ans29</text>
</g>
<!-- ans7&#45;&#45;ans29 -->
<g id="edge28" class="edge">
<title>ans7&#45;&#45;ans29</title>
<path fill="none" stroke="black" d="M53.1,-435.81C32.34,-417.97 1.94,-385.45 19.98,-360 46.97,-321.92 103.57,-310.99 139.29,-307.98"/>
</g>
<!-- ans17&#45;&#45;ans24 -->
<g id="edge57" class="edge">
<title>ans17&#45;&#45;ans24</title>
<path fill="none" stroke="black" d="M408.46,-442.7C424.54,-439.34 444.82,-435.25 462.98,-432 576.77,-411.63 712.79,-391.77 772.42,-383.29"/>
</g>
<!-- ans17&#45;&#45;ans20 -->
<g id="edge56" class="edge">
<title>ans17&#45;&#45;ans20</title>
<path fill="none" stroke="black" d="M402.44,-437.75C429.68,-424.69 474.36,-403.27 501.58,-390.22"/>
</g>
<!-- ans17&#45;&#45;ans18 -->
<g id="edge54" class="edge">
<title>ans17&#45;&#45;ans18</title>
<path fill="none" stroke="black" d="M385.27,-432.05C389.36,-421.05 394.67,-406.76 398.74,-395.79"/>
</g>
<!-- ans17&#45;&#45;ans19 -->
<g id="edge55" class="edge">
<title>ans17&#45;&#45;ans19</title>
<path fill="none" stroke="black" d="M371.34,-432.2C364.16,-414 355.67,-384.32 363.98,-360 368.94,-345.47 379.69,-331.83 388.93,-322.03"/>
</g>
<!-- ans32 -->
<g id="node32" class="node">
<title>ans32</title>
<ellipse fill="none" stroke="black" cx="524.98" cy="-306" rx="31.7" ry="18"/>
<text text-anchor="middle" x="524.98" y="-302.3" font-family="Times,serif" font-size="14.00">ans32</text>
</g>
<!-- ans17&#45;&#45;ans32 -->
<g id="edge58" class="edge">
<title>ans17&#45;&#45;ans32</title>
<path fill="none" stroke="black" d="M397.9,-435.44C411.73,-425.19 430.67,-410.46 445.98,-396 471.21,-372.16 497.35,-341.28 512.34,-322.87"/>
</g>
<!-- ans24&#45;&#45;ans26 -->
<g id="edge73" class="edge">
<title>ans24&#45;&#45;ans26</title>
<path fill="none" stroke="black" d="M788.66,-361.81C777.59,-350.07 762.34,-333.89 751.27,-322.16"/>
</g>
<!-- ans40 -->
<g id="node38" class="node">
<title>ans40</title>
<ellipse fill="none" stroke="black" cx="668.98" cy="-234" rx="31.7" ry="18"/>
<text text-anchor="middle" x="668.98" y="-230.3" font-family="Times,serif" font-size="14.00">ans40</text>
</g>
<!-- ans24&#45;&#45;ans40 -->
<g id="edge74" class="edge">
<title>ans24&#45;&#45;ans40</title>
<path fill="none" stroke="black" d="M802.25,-359.67C800.57,-340.18 795.16,-308.57 777.98,-288 757.34,-263.29 722.43,-249.19 697.69,-241.84"/>
</g>
<!-- ans28&#45;&#45;ans30 -->
<g id="edge81" class="edge">
<title>ans28&#45;&#45;ans30</title>
<path fill="none" stroke="black" d="M69.86,-360.66C81.36,-340.93 103.12,-307.91 129.98,-288 163.39,-263.24 209.75,-248.66 239.56,-241.25"/>
</g>
<!-- ans28&#45;&#45;ans29 -->
<g id="edge80" class="edge">
<title>ans28&#45;&#45;ans29</title>
<path fill="none" stroke="black" d="M81.41,-364C101.17,-351.42 130.94,-332.48 150.66,-319.93"/>
</g>
<!-- ans28&#45;&#45;ans32 -->
<g id="edge82" class="edge">
<title>ans28&#45;&#45;ans32</title>
<path fill="none" stroke="black" d="M90.03,-370.52C106.16,-367.07 126.62,-362.95 144.98,-360 278,-338.62 313.09,-346.2 445.98,-324 462.72,-321.2 481.29,-317.25 496.21,-313.86"/>
</g>
<!-- ans28&#45;&#45;ans40 -->
<g id="edge83" class="edge">
<title>ans28&#45;&#45;ans40</title>
<path fill="none" stroke="black" d="M85.31,-366.04C90.44,-363.91 95.85,-361.78 100.98,-360 215.45,-320.21 245.7,-314.4 363.98,-288 463.64,-265.75 583.37,-247.33 638.49,-239.32"/>
</g>
<!-- ans2 -->
<g id="node8" class="node">
<title>ans2</title>
<ellipse fill="none" stroke="black" cx="551.98" cy="-594" rx="27.1" ry="18"/>
<text text-anchor="middle" x="551.98" y="-590.3" font-family="Times,serif" font-size="14.00">ans2</text>
</g>
<!-- ans2&#45;&#45;ans3 -->
<g id="edge7" class="edge">
<title>ans2&#45;&#45;ans3</title>
<path fill="none" stroke="black" d="M526.66,-587.03C470.55,-573.81 336.29,-542.16 280.24,-528.95"/>
</g>
<!-- ans4 -->
<g id="node9" class="node">
<title>ans4</title>
<ellipse fill="none" stroke="black" cx="578.98" cy="-522" rx="27.1" ry="18"/>
<text text-anchor="middle" x="578.98" y="-518.3" font-family="Times,serif" font-size="14.00">ans4</text>
</g>
<!-- ans2&#45;&#45;ans4 -->
<g id="edge8" class="edge">
<title>ans2&#45;&#45;ans4</title>
<path fill="none" stroke="black" d="M558.38,-576.41C562.62,-565.41 568.17,-551.03 572.44,-539.96"/>
</g>
<!-- ans8 -->
<g id="node10" class="node">
<title>ans8</title>
<ellipse fill="none" stroke="black" cx="531.98" cy="-450" rx="27.1" ry="18"/>
<text text-anchor="middle" x="531.98" y="-446.3" font-family="Times,serif" font-size="14.00">ans8</text>
</g>
<!-- ans2&#45;&#45;ans8 -->
<g id="edge9" class="edge">
<title>ans2&#45;&#45;ans8</title>
<path fill="none" stroke="black" d="M548.86,-575.85C547.03,-565.48 544.74,-552 542.98,-540 539.32,-515.05 535.89,-486.03 533.86,-468.09"/>
</g>
<!-- ans11 -->
<g id="node11" class="node">
<title>ans11</title>
<ellipse fill="none" stroke="black" cx="734.98" cy="-522" rx="31.7" ry="18"/>
<text text-anchor="middle" x="734.98" y="-518.3" font-family="Times,serif" font-size="14.00">ans11</text>
</g>
<!-- ans2&#45;&#45;ans11 -->
<g id="edge10" class="edge">
<title>ans2&#45;&#45;ans11</title>
<path fill="none" stroke="black" d="M575.16,-584.13C609.49,-571 673.65,-546.46 709.35,-532.81"/>
</g>
<!-- ans4&#45;&#45;ans8 -->
<g id="edge16" class="edge">
<title>ans4&#45;&#45;ans8</title>
<path fill="none" stroke="black" d="M568.31,-505.12C560.62,-493.66 550.28,-478.26 542.6,-466.82"/>
</g>
<!-- ans4&#45;&#45;ans6 -->
<g id="edge15" class="edge">
<title>ans4&#45;&#45;ans6</title>
<path fill="none" stroke="black" d="M553.28,-515.43C509.2,-505.86 416.35,-485.62 337.98,-468 321.77,-464.36 303.59,-460.18 289.31,-456.88"/>
</g>
<!-- ans14 -->
<g id="node15" class="node">
<title>ans14</title>
<ellipse fill="none" stroke="black" cx="766.98" cy="-450" rx="31.7" ry="18"/>
<text text-anchor="middle" x="766.98" y="-446.3" font-family="Times,serif" font-size="14.00">ans14</text>
</g>
<!-- ans4&#45;&#45;ans14 -->
<g id="edge17" class="edge">
<title>ans4&#45;&#45;ans14</title>
<path fill="none" stroke="black" d="M602.53,-512.89C631.66,-502.77 682.72,-484.76 725.98,-468 731.3,-465.94 736.97,-463.65 742.34,-461.44"/>
</g>
<!-- ans8&#45;&#45;ans9 -->
<g id="edge29" class="edge">
<title>ans8&#45;&#45;ans9</title>
<path fill="none" stroke="black" d="M506.49,-443.39C446.95,-430.28 299.25,-397.77 239.59,-384.64"/>
</g>
<!-- ans11&#45;&#45;ans20 -->
<g id="edge39" class="edge">
<title>ans11&#45;&#45;ans20</title>
<path fill="none" stroke="black" d="M712.86,-509.05C694.16,-498.73 666.85,-483.14 643.98,-468 606.76,-443.36 565.5,-411.38 542.66,-393.23"/>
</g>
<!-- ans11&#45;&#45;ans14 -->
<g id="edge38" class="edge">
<title>ans11&#45;&#45;ans14</title>
<path fill="none" stroke="black" d="M742.56,-504.41C747.59,-493.41 754.17,-479.03 759.23,-467.96"/>
</g>
<!-- ans31 -->
<g id="node26" class="node">
<title>ans31</title>
<ellipse fill="none" stroke="black" cx="848.98" cy="-450" rx="31.7" ry="18"/>
<text text-anchor="middle" x="848.98" y="-446.3" font-family="Times,serif" font-size="14.00">ans31</text>
</g>
<!-- ans11&#45;&#45;ans31 -->
<g id="edge40" class="edge">
<title>ans11&#45;&#45;ans31</title>
<path fill="none" stroke="black" d="M755.89,-508.16C776.46,-495.53 807.68,-476.36 828.2,-463.76"/>
</g>
<!-- ans12 -->
<g id="node27" class="node">
<title>ans12</title>
<ellipse fill="none" stroke="black" cx="684.98" cy="-450" rx="31.7" ry="18"/>
<text text-anchor="middle" x="684.98" y="-446.3" font-family="Times,serif" font-size="14.00">ans12</text>
</g>
<!-- ans11&#45;&#45;ans12 -->
<g id="edge37" class="edge">
<title>ans11&#45;&#45;ans12</title>
<path fill="none" stroke="black" d="M723.63,-505.12C715.57,-493.82 704.76,-478.7 696.63,-467.31"/>
</g>
<!-- ans6&#45;&#45;ans9 -->
<g id="edge23" class="edge">
<title>ans6&#45;&#45;ans9</title>
<path fill="none" stroke="black" d="M252.88,-433.46C244.6,-421.86 233.32,-406.08 225.04,-394.49"/>
</g>
<!-- ans6&#45;&#45;ans30 -->
<g id="edge25" class="edge">
<title>ans6&#45;&#45;ans30</title>
<path fill="none" stroke="black" d="M264.38,-431.85C265.32,-391.78 267.64,-292.38 268.58,-252.23"/>
</g>
<!-- ans21 -->
<g id="node19" class="node">
<title>ans21</title>
<ellipse fill="none" stroke="black" cx="606.98" cy="-306" rx="31.7" ry="18"/>
<text text-anchor="middle" x="606.98" y="-302.3" font-family="Times,serif" font-size="14.00">ans21</text>
</g>
<!-- ans6&#45;&#45;ans21 -->
<g id="edge24" class="edge">
<title>ans6&#45;&#45;ans21</title>
<path fill="none" stroke="black" d="M276.39,-433.59C293.71,-413.23 327.18,-377.86 363.98,-360 446.02,-320.19 478.46,-349.61 565.98,-324 571.6,-322.36 577.5,-320.19 583.01,-317.96"/>
</g>
<!-- ans9&#45;&#45;ans29 -->
<g id="edge30" class="edge">
<title>ans9&#45;&#45;ans29</title>
<path fill="none" stroke="black" d="M204.22,-361.12C197.28,-349.82 187.99,-334.7 181,-323.31"/>
</g>
<!-- ans20&#45;&#45;ans21 -->
<g id="edge64" class="edge">
<title>ans20&#45;&#45;ans21</title>
<path fill="none" stroke="black" d="M541.97,-362.5C556.04,-350.48 575.94,-333.49 590.01,-321.49"/>
</g>
<!-- ans20&#45;&#45;ans32 -->
<g id="edge65" class="edge">
<title>ans20&#45;&#45;ans32</title>
<path fill="none" stroke="black" d="M524.98,-359.7C524.98,-348.85 524.98,-334.92 524.98,-324.1"/>
</g>
<!-- ans14&#45;&#45;ans21 -->
<g id="edge49" class="edge">
<title>ans14&#45;&#45;ans21</title>
<path fill="none" stroke="black" d="M750.46,-434.34C719.8,-407.13 654.42,-349.11 623.65,-321.79"/>
</g>
<!-- ans15 -->
<g id="node28" class="node">
<title>ans15</title>
<ellipse fill="none" stroke="black" cx="606.98" cy="-378" rx="31.7" ry="18"/>
<text text-anchor="middle" x="606.98" y="-374.3" font-family="Times,serif" font-size="14.00">ans15</text>
</g>
<!-- ans14&#45;&#45;ans15 -->
<g id="edge48" class="edge">
<title>ans14&#45;&#45;ans15</title>
<path fill="none" stroke="black" d="M742.33,-438.22C712.17,-425.02 661.44,-402.83 631.39,-389.68"/>
</g>
<!-- ans35 -->
<g id="node30" class="node">
<title>ans35</title>
<ellipse fill="none" stroke="black" cx="862.98" cy="-306" rx="31.7" ry="18"/>
<text text-anchor="middle" x="862.98" y="-302.3" font-family="Times,serif" font-size="14.00">ans35</text>
</g>
<!-- ans14&#45;&#45;ans35 -->
<g id="edge50" class="edge">
<title>ans14&#45;&#45;ans35</title>
<path fill="none" stroke="black" d="M791.57,-438.23C808.88,-429.37 831.17,-415.16 843.98,-396 858.55,-374.19 862.21,-343.25 862.99,-324.18"/>
</g>
<!-- ans18&#45;&#45;ans26 -->
<g id="edge61" class="edge">
<title>ans18&#45;&#45;ans26</title>
<path fill="none" stroke="black" d="M434.23,-370.66C449.12,-367.45 467.51,-363.5 483.98,-360 564.75,-342.85 660.11,-322.97 707.37,-313.15"/>
</g>
<!-- ans18&#45;&#45;ans21 -->
<g id="edge60" class="edge">
<title>ans18&#45;&#45;ans21</title>
<path fill="none" stroke="black" d="M432.26,-368.71C464.45,-358.76 519.5,-341.26 565.98,-324 571.32,-322.02 577.01,-319.76 582.38,-317.55"/>
</g>
<!-- ans18&#45;&#45;ans19 -->
<g id="edge59" class="edge">
<title>ans18&#45;&#45;ans19</title>
<path fill="none" stroke="black" d="M404.98,-359.7C404.98,-348.85 404.98,-334.92 404.98,-324.1"/>
</g>
<!-- ans36 -->
<g id="node33" class="node">
<title>ans36</title>
<ellipse fill="none" stroke="black" cx="528.98" cy="-162" rx="31.7" ry="18"/>
<text text-anchor="middle" x="528.98" y="-158.3" font-family="Times,serif" font-size="14.00">ans36</text>
</g>
<!-- ans18&#45;&#45;ans36 -->
<g id="edge62" class="edge">
<title>ans18&#45;&#45;ans36</title>
<path fill="none" stroke="black" d="M418.33,-361.32C426.76,-351.05 437.6,-337.15 445.98,-324 478.08,-273.61 508.25,-209.33 521.67,-179.54"/>
</g>
<!-- ans27 -->
<g id="node37" class="node">
<title>ans27</title>
<ellipse fill="none" stroke="black" cx="1140.98" cy="-234" rx="31.7" ry="18"/>
<text text-anchor="middle" x="1140.98" y="-230.3" font-family="Times,serif" font-size="14.00">ans27</text>
</g>
<!-- ans26&#45;&#45;ans27 -->
<g id="edge78" class="edge">
<title>ans26&#45;&#45;ans27</title>
<path fill="none" stroke="black" d="M766.44,-298.86C782.78,-295.52 803.47,-291.39 821.98,-288 927.73,-268.64 1053.77,-248.59 1110.57,-239.71"/>
</g>
<!-- ans41 -->
<g id="node40" class="node">
<title>ans41</title>
<ellipse fill="none" stroke="black" cx="600.98" cy="-90" rx="31.7" ry="18"/>
<text text-anchor="middle" x="600.98" y="-86.3" font-family="Times,serif" font-size="14.00">ans41</text>
</g>
<!-- ans26&#45;&#45;ans41 -->
<g id="edge79" class="edge">
<title>ans26&#45;&#45;ans41</title>
<path fill="none" stroke="black" d="M710.95,-295.54C682.2,-284.56 638.57,-266.15 627.98,-252 595.39,-208.42 596.5,-139.65 599.09,-107.99"/>
</g>
<!-- ans30&#45;&#45;ans36 -->
<g id="edge87" class="edge">
<title>ans30&#45;&#45;ans36</title>
<path fill="none" stroke="black" d="M297.64,-225.85C337.03,-215.94 410.06,-197.31 471.98,-180 481.63,-177.3 492.15,-174.21 501.49,-171.41"/>
</g>
<!-- ans30&#45;&#45;ans41 -->
<g id="edge88" class="edge">
<title>ans30&#45;&#45;ans41</title>
<path fill="none" stroke="black" d="M293.66,-222.44C355.12,-196.15 514.5,-127.99 576.13,-101.63"/>
</g>
<!-- ans45 -->
<g id="node42" class="node">
<title>ans45</title>
<ellipse fill="none" stroke="black" cx="641.98" cy="-18" rx="31.7" ry="18"/>
<text text-anchor="middle" x="641.98" y="-14.3" font-family="Times,serif" font-size="14.00">ans45</text>
</g>
<!-- ans30&#45;&#45;ans45 -->
<g id="edge89" class="edge">
<title>ans30&#45;&#45;ans45</title>
<path fill="none" stroke="black" d="M286.51,-218.75C309.64,-200.3 352,-167.69 390.98,-144 470.64,-95.58 571.57,-49.65 617.38,-29.59"/>
</g>
<!-- ans21&#45;&#45;ans36 -->
<g id="edge66" class="edge">
<title>ans21&#45;&#45;ans36</title>
<path fill="none" stroke="black" d="M598.03,-288.71C583.07,-261.47 553.12,-206.95 538.06,-179.54"/>
</g>
<!-- ans34 -->
<g id="node34" class="node">
<title>ans34</title>
<ellipse fill="none" stroke="black" cx="404.98" cy="-234" rx="31.7" ry="18"/>
<text text-anchor="middle" x="404.98" y="-230.3" font-family="Times,serif" font-size="14.00">ans34</text>
</g>
<!-- ans19&#45;&#45;ans34 -->
<g id="edge63" class="edge">
<title>ans19&#45;&#45;ans34</title>
<path fill="none" stroke="black" d="M404.98,-287.7C404.98,-276.85 404.98,-262.92 404.98,-252.1"/>
</g>
<!-- ans29&#45;&#45;ans30 -->
<g id="edge84" class="edge">
<title>ans29&#45;&#45;ans30</title>
<path fill="none" stroke="black" d="M189.87,-291.5C207.12,-279.19 232.48,-261.07 249.81,-248.69"/>
</g>
<!-- ans29&#45;&#45;ans34 -->
<g id="edge85" class="edge">
<title>ans29&#45;&#45;ans34</title>
<path fill="none" stroke="black" d="M196.64,-295.11C203.23,-292.68 210.34,-290.16 216.98,-288 272.93,-269.81 339.39,-251.93 376.42,-242.3"/>
</g>
<!-- ans42 -->
<g id="node41" class="node">
<title>ans42</title>
<ellipse fill="none" stroke="black" cx="559.98" cy="-18" rx="31.7" ry="18"/>
<text text-anchor="middle" x="559.98" y="-14.3" font-family="Times,serif" font-size="14.00">ans42</text>
</g>
<!-- ans29&#45;&#45;ans42 -->
<g id="edge86" class="edge">
<title>ans29&#45;&#45;ans42</title>
<path fill="none" stroke="black" d="M178.92,-288.49C188.62,-269.48 206.43,-238.04 227.98,-216 322.38,-119.43 473.86,-52.83 534.08,-28.85"/>
</g>
<!-- ans10 -->
<g id="node22" class="node">
<title>ans10</title>
<ellipse fill="none" stroke="black" cx="859.98" cy="-594" rx="31.7" ry="18"/>
<text text-anchor="middle" x="859.98" y="-590.3" font-family="Times,serif" font-size="14.00">ans10</text>
</g>
<!-- ans10&#45;&#45;ans17 -->
<g id="edge34" class="edge">
<title>ans10&#45;&#45;ans17</title>
<path fill="none" stroke="black" d="M832.02,-585.17C798.74,-575.61 741.68,-558.41 693.98,-540 657.98,-526.11 651.55,-516.29 614.98,-504 542.93,-479.78 454.79,-463.32 409.33,-455.75"/>
</g>
<!-- ans10&#45;&#45;ans11 -->
<g id="edge31" class="edge">
<title>ans10&#45;&#45;ans11</title>
<path fill="none" stroke="black" d="M838.21,-580.81C815.4,-568.04 779.79,-548.09 756.92,-535.29"/>
</g>
<!-- ans13 -->
<g id="node23" class="node">
<title>ans13</title>
<ellipse fill="none" stroke="black" cx="938.98" cy="-522" rx="31.7" ry="18"/>
<text text-anchor="middle" x="938.98" y="-518.3" font-family="Times,serif" font-size="14.00">ans13</text>
</g>
<!-- ans10&#45;&#45;ans13 -->
<g id="edge32" class="edge">
<title>ans10&#45;&#45;ans13</title>
<path fill="none" stroke="black" d="M876.35,-578.5C889.91,-566.48 909.08,-549.49 922.63,-537.49"/>
</g>
<!-- ans16 -->
<g id="node24" class="node">
<title>ans16</title>
<ellipse fill="none" stroke="black" cx="930.98" cy="-450" rx="31.7" ry="18"/>
<text text-anchor="middle" x="930.98" y="-446.3" font-family="Times,serif" font-size="14.00">ans16</text>
</g>
<!-- ans10&#45;&#45;ans16 -->
<g id="edge33" class="edge">
<title>ans10&#45;&#45;ans16</title>
<path fill="none" stroke="black" d="M866.24,-576.25C873.23,-558.09 885.25,-528.44 897.98,-504 904.59,-491.31 913.16,-477.62 919.9,-467.33"/>
</g>
<!-- ans22 -->
<g id="node25" class="node">
<title>ans22</title>
<ellipse fill="none" stroke="black" cx="1088.98" cy="-522" rx="31.7" ry="18"/>
<text text-anchor="middle" x="1088.98" y="-518.3" font-family="Times,serif" font-size="14.00">ans22</text>
</g>
<!-- ans10&#45;&#45;ans22 -->
<g id="edge35" class="edge">
<title>ans10&#45;&#45;ans22</title>
<path fill="none" stroke="black" d="M887.6,-584.56C931.74,-571.07 1017.64,-544.81 1061.61,-531.36"/>
</g>
<!-- ans10&#45;&#45;ans31 -->
<g id="edge36" class="edge">
<title>ans10&#45;&#45;ans31</title>
<path fill="none" stroke="black" d="M858.65,-575.87C856.54,-548.58 852.43,-495.52 850.31,-468.19"/>
</g>
<!-- ans13&#45;&#45;ans14 -->
<g id="edge43" class="edge">
<title>ans13&#45;&#45;ans14</title>
<path fill="none" stroke="black" d="M913.84,-510.9C887.45,-500.29 844.76,-483.06 807.98,-468 802.84,-465.9 797.36,-463.63 792.12,-461.46"/>
</g>
<!-- ans13&#45;&#45;ans18 -->
<g id="edge45" class="edge">
<title>ans13&#45;&#45;ans18</title>
<path fill="none" stroke="black" d="M907.75,-518.13C853.18,-512.52 737.39,-497.93 643.98,-468 608.39,-456.6 602.71,-445.81 567.98,-432 521.39,-413.48 465.51,-396.38 432.76,-386.85"/>
</g>
<!-- ans13&#45;&#45;ans16 -->
<g id="edge44" class="edge">
<title>ans13&#45;&#45;ans16</title>
<path fill="none" stroke="black" d="M937,-503.7C935.76,-492.85 934.17,-478.92 932.93,-468.1"/>
</g>
<!-- ans25 -->
<g id="node29" class="node">
<title>ans25</title>
<ellipse fill="none" stroke="black" cx="1200.98" cy="-378" rx="31.7" ry="18"/>
<text text-anchor="middle" x="1200.98" y="-374.3" font-family="Times,serif" font-size="14.00">ans25</text>
</g>
<!-- ans13&#45;&#45;ans25 -->
<g id="edge46" class="edge">
<title>ans13&#45;&#45;ans25</title>
<path fill="none" stroke="black" d="M970.18,-518.29C1010.14,-513.56 1080.17,-500.92 1129.98,-468 1158.34,-449.25 1180.64,-415.52 1192.22,-395.4"/>
</g>
<!-- ans13&#45;&#45;ans35 -->
<g id="edge47" class="edge">
<title>ans13&#45;&#45;ans35</title>
<path fill="none" stroke="black" d="M954.19,-505.61C982.09,-475.48 1035.61,-407.53 1001.98,-360 974.21,-320.76 944.53,-342.05 899.98,-324 895.65,-322.25 891.1,-320.27 886.72,-318.3"/>
</g>
<!-- ans16&#45;&#45;ans19 -->
<g id="edge52" class="edge">
<title>ans16&#45;&#45;ans19</title>
<path fill="none" stroke="black" d="M906.45,-438.27C901.07,-436.08 895.37,-433.87 889.98,-432 834.14,-412.65 818.61,-412.9 761.98,-396 711.06,-380.81 699.32,-373.68 647.98,-360 637.6,-357.24 496.52,-326.74 434.21,-313.3"/>
</g>
<!-- ans33 -->
<g id="node31" class="node">
<title>ans33</title>
<ellipse fill="none" stroke="black" cx="960.98" cy="-378" rx="31.7" ry="18"/>
<text text-anchor="middle" x="960.98" y="-374.3" font-family="Times,serif" font-size="14.00">ans33</text>
</g>
<!-- ans16&#45;&#45;ans33 -->
<g id="edge53" class="edge">
<title>ans16&#45;&#45;ans33</title>
<path fill="none" stroke="black" d="M938.09,-432.41C942.8,-421.41 948.97,-407.03 953.71,-395.96"/>
</g>
<!-- ans22&#45;&#45;ans24 -->
<g id="edge68" class="edge">
<title>ans22&#45;&#45;ans24</title>
<path fill="none" stroke="black" d="M1073.17,-506.07C1051.76,-486.57 1011.65,-452.51 971.98,-432 925.95,-408.21 867.3,-392.77 832.58,-385"/>
</g>
<!-- ans22&#45;&#45;ans25 -->
<g id="edge69" class="edge">
<title>ans22&#45;&#45;ans25</title>
<path fill="none" stroke="black" d="M1119.19,-515.92C1145.85,-509.66 1183.14,-496.17 1200.98,-468 1214.78,-446.2 1210.58,-414.97 1205.98,-395.89"/>
</g>
<!-- ans23 -->
<g id="node35" class="node">
<title>ans23</title>
<ellipse fill="none" stroke="black" cx="1088.98" cy="-450" rx="31.7" ry="18"/>
<text text-anchor="middle" x="1088.98" y="-446.3" font-family="Times,serif" font-size="14.00">ans23</text>
</g>
<!-- ans22&#45;&#45;ans23 -->
<g id="edge67" class="edge">
<title>ans22&#45;&#45;ans23</title>
<path fill="none" stroke="black" d="M1088.98,-503.7C1088.98,-492.85 1088.98,-478.92 1088.98,-468.1"/>
</g>
<!-- ans37 -->
<g id="node36" class="node">
<title>ans37</title>
<ellipse fill="none" stroke="black" cx="1080.98" cy="-378" rx="31.7" ry="18"/>
<text text-anchor="middle" x="1080.98" y="-374.3" font-family="Times,serif" font-size="14.00">ans37</text>
</g>
<!-- ans22&#45;&#45;ans37 -->
<g id="edge70" class="edge">
<title>ans22&#45;&#45;ans37</title>
<path fill="none" stroke="black" d="M1105.02,-505.97C1114.27,-496.17 1125.01,-482.53 1129.98,-468 1135.15,-452.86 1135.81,-446.9 1129.98,-432 1123.86,-416.36 1110.72,-402.57 1099.59,-392.98"/>
</g>
<!-- ans31&#45;&#45;ans35 -->
<g id="edge92" class="edge">
<title>ans31&#45;&#45;ans35</title>
<path fill="none" stroke="black" d="M860.29,-432.66C866.55,-422.59 873.72,-409.13 876.98,-396 883.11,-371.25 875.76,-341.94 869.61,-323.91"/>
</g>
<!-- ans31&#45;&#45;ans33 -->
<g id="edge91" class="edge">
<title>ans31&#45;&#45;ans33</title>
<path fill="none" stroke="black" d="M869.52,-436.16C889.6,-423.61 920.02,-404.6 940.19,-391.99"/>
</g>
<!-- ans31&#45;&#45;ans32 -->
<g id="edge90" class="edge">
<title>ans31&#45;&#45;ans32</title>
<path fill="none" stroke="black" d="M824.57,-438.1C786.78,-421.24 711.8,-387.88 647.98,-360 613.89,-345.11 574.36,-328.13 549.51,-317.49"/>
</g>
<!-- ans31&#45;&#45;ans37 -->
<g id="edge93" class="edge">
<title>ans31&#45;&#45;ans37</title>
<path fill="none" stroke="black" d="M873.51,-438.26C878.89,-436.06 884.59,-433.86 889.98,-432 946.59,-412.49 1014.48,-395.02 1052.17,-385.83"/>
</g>
<!-- ans12&#45;&#45;ans20 -->
<g id="edge42" class="edge">
<title>ans12&#45;&#45;ans20</title>
<path fill="none" stroke="black" d="M660.33,-438.22C630.17,-425.02 579.44,-402.83 549.39,-389.68"/>
</g>
<!-- ans12&#45;&#45;ans15 -->
<g id="edge41" class="edge">
<title>ans12&#45;&#45;ans15</title>
<path fill="none" stroke="black" d="M668.44,-434.15C655.11,-422.2 636.48,-405.47 623.23,-393.58"/>
</g>
<!-- ans15&#45;&#45;ans21 -->
<g id="edge51" class="edge">
<title>ans15&#45;&#45;ans21</title>
<path fill="none" stroke="black" d="M606.98,-359.7C606.98,-348.85 606.98,-334.92 606.98,-324.1"/>
</g>
<!-- ans25&#45;&#45;ans26 -->
<g id="edge75" class="edge">
<title>ans25&#45;&#45;ans26</title>
<path fill="none" stroke="black" d="M1172.21,-370.14C1157.29,-366.75 1138.72,-362.8 1121.98,-360 989.53,-337.85 954.59,-345.18 821.98,-324 803.4,-321.03 782.7,-316.91 766.38,-313.47"/>
</g>
<!-- ans25&#45;&#45;ans27 -->
<g id="edge76" class="edge">
<title>ans25&#45;&#45;ans27</title>
<path fill="none" stroke="black" d="M1202.76,-359.73C1203.93,-341.13 1203.65,-311.1 1192.98,-288 1185.68,-272.2 1171.62,-258.33 1159.96,-248.74"/>
</g>
<!-- ans39 -->
<g id="node39" class="node">
<title>ans39</title>
<ellipse fill="none" stroke="black" cx="980.98" cy="-234" rx="31.7" ry="18"/>
<text text-anchor="middle" x="980.98" y="-230.3" font-family="Times,serif" font-size="14.00">ans39</text>
</g>
<!-- ans25&#45;&#45;ans39 -->
<g id="edge77" class="edge">
<title>ans25&#45;&#45;ans39</title>
<path fill="none" stroke="black" d="M1180.68,-363.9C1138.77,-336.84 1043.1,-275.1 1001.23,-248.07"/>
</g>
<!-- ans35&#45;&#45;ans36 -->
<g id="edge102" class="edge">
<title>ans35&#45;&#45;ans36</title>
<path fill="none" stroke="black" d="M843.5,-291.58C815.18,-272.58 760.52,-237.72 709.98,-216 658.39,-193.83 594.69,-177.58 558.26,-169.26"/>
</g>
<!-- ans35&#45;&#45;ans39 -->
<g id="edge103" class="edge">
<title>ans35&#45;&#45;ans39</title>
<path fill="none" stroke="black" d="M884.07,-292.49C905.42,-279.82 938.25,-260.35 959.67,-247.64"/>
</g>
<!-- ans43 -->
<g id="node44" class="node">
<title>ans43</title>
<ellipse fill="none" stroke="black" cx="978.98" cy="-162" rx="31.7" ry="18"/>
<text text-anchor="middle" x="978.98" y="-158.3" font-family="Times,serif" font-size="14.00">ans43</text>
</g>
<!-- ans35&#45;&#45;ans43 -->
<g id="edge104" class="edge">
<title>ans35&#45;&#45;ans43</title>
<path fill="none" stroke="black" d="M875.84,-289.26C898.13,-261.97 943.73,-206.15 966.06,-178.81"/>
</g>
<!-- ans33&#45;&#45;ans35 -->
<g id="edge98" class="edge">
<title>ans33&#45;&#45;ans35</title>
<path fill="none" stroke="black" d="M942.08,-363.5C924.84,-351.19 899.48,-333.07 882.15,-320.69"/>
</g>
<!-- ans33&#45;&#45;ans34 -->
<g id="edge97" class="edge">
<title>ans33&#45;&#45;ans34</title>
<path fill="none" stroke="black" d="M930.12,-372.59C869.64,-363.65 737.74,-342.67 695.98,-324 671.63,-313.12 672.23,-299.1 647.98,-288 576.52,-255.3 483.85,-242.31 436.24,-237.53"/>
</g>
<!-- ans38 -->
<g id="node43" class="node">
<title>ans38</title>
<ellipse fill="none" stroke="black" cx="982.98" cy="-306" rx="31.7" ry="18"/>
<text text-anchor="middle" x="982.98" y="-302.3" font-family="Times,serif" font-size="14.00">ans38</text>
</g>
<!-- ans33&#45;&#45;ans38 -->
<g id="edge99" class="edge">
<title>ans33&#45;&#45;ans38</title>
<path fill="none" stroke="black" d="M966.3,-360.05C969.76,-349.05 974.25,-334.76 977.7,-323.79"/>
</g>
<!-- ans32&#45;&#45;ans36 -->
<g id="edge95" class="edge">
<title>ans32&#45;&#45;ans36</title>
<path fill="none" stroke="black" d="M525.46,-287.87C526.23,-260.58 527.72,-207.52 528.49,-180.19"/>
</g>
<!-- ans32&#45;&#45;ans34 -->
<g id="edge94" class="edge">
<title>ans32&#45;&#45;ans34</title>
<path fill="none" stroke="black" d="M503.53,-292.49C481.68,-279.74 448.02,-260.11 426.25,-247.41"/>
</g>
<!-- ans32&#45;&#45;ans40 -->
<g id="edge96" class="edge">
<title>ans32&#45;&#45;ans40</title>
<path fill="none" stroke="black" d="M548.44,-293.6C575.21,-280.58 618.76,-259.41 645.53,-246.4"/>
</g>
<!-- ans36&#45;&#45;ans41 -->
<g id="edge105" class="edge">
<title>ans36&#45;&#45;ans41</title>
<path fill="none" stroke="black" d="M544.25,-146.15C556.47,-134.28 573.52,-117.7 585.73,-105.82"/>
</g>
<!-- ans36&#45;&#45;ans45 -->
<g id="edge106" class="edge">
<title>ans36&#45;&#45;ans45</title>
<path fill="none" stroke="black" d="M531.49,-144C535.05,-124.81 543.09,-93.48 559.98,-72 575.06,-52.81 599.12,-38.44 617.29,-29.54"/>
</g>
<!-- ans34&#45;&#45;ans36 -->
<g id="edge100" class="edge">
<title>ans34&#45;&#45;ans36</title>
<path fill="none" stroke="black" d="M426.86,-220.65C449.53,-207.85 484.73,-187.98 507.31,-175.23"/>
</g>
<!-- ans34&#45;&#45;ans42 -->
<g id="edge101" class="edge">
<title>ans34&#45;&#45;ans42</title>
<path fill="none" stroke="black" d="M416.63,-216.92C445.42,-177.16 519.69,-74.62 548.41,-34.98"/>
</g>
<!-- ans23&#45;&#45;ans24 -->
<g id="edge71" class="edge">
<title>ans23&#45;&#45;ans24</title>
<path fill="none" stroke="black" d="M1063.4,-438.84C1056.8,-436.42 1049.68,-433.97 1042.98,-432 968.47,-410.12 878.6,-392.56 832.87,-384.24"/>
</g>
<!-- ans23&#45;&#45;ans27 -->
<g id="edge72" class="edge">
<title>ans23&#45;&#45;ans27</title>
<path fill="none" stroke="black" d="M1101.37,-433.25C1108.62,-423.17 1117.25,-409.5 1121.98,-396 1139.48,-346.07 1141.53,-282.64 1141.37,-252.47"/>
</g>
<!-- ans37&#45;&#45;ans40 -->
<g id="edge109" class="edge">
<title>ans37&#45;&#45;ans40</title>
<path fill="none" stroke="black" d="M1055.06,-367.41C1016.24,-353.02 946.99,-327.15 941.98,-324 922.28,-311.62 924.5,-298.95 903.98,-288 837.19,-252.37 747.37,-240.63 700.47,-236.81"/>
</g>
<!-- ans37&#45;&#45;ans39 -->
<g id="edge108" class="edge">
<title>ans37&#45;&#45;ans39</title>
<path fill="none" stroke="black" d="M1071.21,-360.56C1060.26,-342.42 1041.71,-312.54 1023.98,-288 1014.54,-274.94 1003,-260.8 994.25,-250.41"/>
</g>
<!-- ans37&#45;&#45;ans38 -->
<g id="edge107" class="edge">
<title>ans37&#45;&#45;ans38</title>
<path fill="none" stroke="black" d="M1062.08,-363.5C1044.84,-351.19 1019.48,-333.07 1002.15,-320.69"/>
</g>
<!-- ans40&#45;&#45;ans41 -->
<g id="edge114" class="edge">
<title>ans40&#45;&#45;ans41</title>
<path fill="none" stroke="black" d="M661.05,-216.43C647.94,-189.07 621.93,-134.75 608.86,-107.46"/>
</g>
<!-- ans40&#45;&#45;ans42 -->
<g id="edge115" class="edge">
<title>ans40&#45;&#45;ans42</title>
<path fill="none" stroke="black" d="M670.39,-215.88C672.11,-184.59 671.72,-117.23 641.98,-72 628.57,-51.6 604.3,-37.38 585.63,-28.85"/>
</g>
<!-- ans39&#45;&#45;ans41 -->
<g id="edge112" class="edge">
<title>ans39&#45;&#45;ans41</title>
<path fill="none" stroke="black" d="M955.16,-223.35C885.83,-197.45 696.2,-126.58 626.83,-100.66"/>
</g>
<!-- ans39&#45;&#45;ans43 -->
<g id="edge113" class="edge">
<title>ans39&#45;&#45;ans43</title>
<path fill="none" stroke="black" d="M980.48,-215.7C980.17,-204.85 979.78,-190.92 979.47,-180.1"/>
</g>
<!-- ans41&#45;&#45;ans42 -->
<g id="edge116" class="edge">
<title>ans41&#45;&#45;ans42</title>
<path fill="none" stroke="black" d="M591.47,-72.76C584.94,-61.62 576.3,-46.87 569.72,-35.63"/>
</g>
<!-- ans41&#45;&#45;ans45 -->
<g id="edge117" class="edge">
<title>ans41&#45;&#45;ans45</title>
<path fill="none" stroke="black" d="M610.49,-72.76C617.02,-61.62 625.66,-46.87 632.24,-35.63"/>
</g>
<!-- ans38&#45;&#45;ans39 -->
<g id="edge110" class="edge">
<title>ans38&#45;&#45;ans39</title>
<path fill="none" stroke="black" d="M982.48,-287.7C982.17,-276.85 981.78,-262.92 981.47,-252.1"/>
</g>
<!-- ans38&#45;&#45;ans42 -->
<g id="edge111" class="edge">
<title>ans38&#45;&#45;ans42</title>
<path fill="none" stroke="black" d="M965.69,-290.83C918.85,-252.8 784.93,-146.33 663.98,-72 637.56,-55.77 605.57,-40.01 584.11,-29.95"/>
</g>
<!-- ans43&#45;&#45;ans45 -->
<g id="edge119" class="edge">
<title>ans43&#45;&#45;ans45</title>
<path fill="none" stroke="black" d="M983.26,-143.82C987.1,-123.87 989.74,-91.25 971.98,-72 932.15,-28.81 748.85,-20.79 673.97,-19.32"/>
</g>
<!-- ans44 -->
<g id="node45" class="node">
<title>ans44</title>
<ellipse fill="none" stroke="black" cx="930.98" cy="-90" rx="31.7" ry="18"/>
<text text-anchor="middle" x="930.98" y="-86.3" font-family="Times,serif" font-size="14.00">ans44</text>
</g>
<!-- ans43&#45;&#45;ans44 -->
<g id="edge118" class="edge">
<title>ans43&#45;&#45;ans44</title>
<path fill="none" stroke="black" d="M967.85,-144.76C960.09,-133.46 949.79,-118.44 942.05,-107.15"/>
</g>
<!-- ans44&#45;&#45;ans45 -->
<g id="edge120" class="edge">
<title>ans44&#45;&#45;ans45</title>
<path fill="none" stroke="black" d="M905.4,-78.83C898.81,-76.41 891.68,-73.96 884.98,-72 809.55,-49.95 718.55,-32.47 672.25,-24.2"/>
</g>
</g>
</svg>
